<svg width="559" height="600" xmlns="http://www.w3.org/2000/svg">
 <g>
  <title>Layer 1</title>
  <g transform="rotate(-0.283226 279.5 299)" stroke="null" id="svg_65">
   <path fill="#ff5656" stroke="null" id="svg_64" d="m328.68449,3.40027c-3.99302,0 -7.70906,0.91502 -11.14813,2.15152c7.2936,5.19334 11.3097,12.11778 13.29467,19.93252c0.16157,1.0634 0.43854,1.83003 0.57703,2.89343a15.71817,16.84125 0 0 1 0.30005,2.76978c0.55394,13.47794 -3.30059,15.18432 -6.00106,23.14744c-4.15458,10.26302 -3.00053,21.29268 1.98497,30.17081a17.07995,18.30033 0 0 0 1.708,3.38803c-5.42404,-38.77691 24.76593,-44.5885 30.32846,-56.70628c0.43854,-10.58451 -7.70906,-17.63261 -14.14866,-22.52919a31.621,33.88033 0 0 0 -16.89531,-5.19334l0,-0.02473zm45.49269,8.72975c-0.55394,3.53641 -0.13849,2.6214 -0.27697,4.45143c-0.13849,1.23651 -0.13849,2.76978 -0.27697,3.98156c-0.30005,1.23651 -0.57703,2.47302 -1.01556,3.6848c-0.27697,1.23651 -0.69243,2.47302 -1.15405,3.6848l-1.54643,3.51168c-0.46162,0.61825 -0.71551,1.23651 -1.15405,1.85476l-0.854,1.36016a49.67035,53.21933 0 0 1 -2.14653,3.06654c-0.854,0.93975 -1.56951,2.00314 -2.58507,2.76978l0,0.14838c-0.854,0.76664 -1.708,1.68165 -2.72356,2.47302c-3.00053,2.44829 -6.41652,4.27832 -9.57862,6.57823c-0.99248,0.74191 -2.00805,1.38489 -2.86205,2.29991a20.9114,22.40553 0 0 0 -2.72356,2.44829c-0.99248,0.91502 -1.708,1.83003 -2.56199,2.91816c-0.71551,0.91502 -1.56951,1.97841 -2.14653,3.06654a36.51417,39.12313 0 0 0 -2.00805,3.21492c-0.57703,1.23651 -0.99248,2.29991 -1.56951,3.51168c-0.43854,1.23651 -0.854,2.29991 -1.15405,3.53641a46.3236,49.63345 0 0 0 -0.99248,3.83318c-0.13849,0.61825 -0.13849,1.38489 -0.27697,1.97841c-0.16157,0.61825 -0.16157,1.23651 -0.30005,1.85476c0,1.23651 -0.13849,2.59667 -0.13849,3.83318c0,0.91502 0,1.83003 0.13849,2.74505c0,1.23651 0.13849,2.47302 0.43854,3.83318c0.13849,1.23651 0.41546,2.47302 0.69243,3.70953c0.46162,1.21178 0.73859,2.42356 1.15405,3.66007c0.30005,0.74191 0.71551,1.53327 1.01556,2.15152l-32.91353,-13.65105c-5.56253,-1.68165 -11.00965,-3.21492 -16.59525,-4.59981l-9.0016,-2.29991c-8.58614,-1.83003 -17.31076,-3.21492 -26.03539,-4.12994c-0.30005,0 -0.43854,-0.14838 -0.71551,-0.14838a255.78385,274.05975 0 0 0 -44.36172,-0.61825c-8.72463,0.61825 -17.44925,1.83003 -26.17388,3.3633a287.35868,307.89063 0 0 0 -19.31881,4.30305l-6.4396,1.83003c-2.12345,0.91502 -4.15458,1.97841 -6.13955,2.91816l-4.73161,2.29991c-0.27697,0.14838 -0.55394,0.14838 -0.69243,0.29676c-1.4541,0.76664 -2.72356,1.38489 -4.0161,2.15152a63.19583,67.71121 0 0 0 -5.44712,2.91816c-0.99248,0.44514 -1.98497,1.0634 -2.86205,1.53327a12.90229,13.82417 0 0 1 -1.26946,0.74191c-1.29254,0.79137 -2.58507,1.558 -3.73913,2.32464a36.00639,38.57907 0 0 0 -3.41599,2.29991c-1.01556,0.74191 -2.00805,1.36016 -2.86205,2.12679c-0.13849,0.17311 -0.30005,0.17311 -0.43854,0.32149c-0.854,0.61825 -1.84648,1.38489 -2.72356,2.15152l-0.27697,0.29676l-2.14653,1.83003c-0.27697,0.17311 -0.57703,0.46987 -0.854,0.61825c-0.71551,0.61825 -1.43102,1.38489 -2.14653,1.97841c-0.13849,0.32149 -0.43854,0.4946 -0.57703,0.61825c-0.854,0.93975 -1.708,1.70638 -2.56199,2.6214c-0.16157,0 -0.16157,0.14838 -0.30005,0.29676a40.20713,43.07996 0 0 0 -2.56199,2.6214c-0.16157,0.14838 -0.16157,0.29676 -0.30005,0.29676a33.5598,35.95767 0 0 0 -2.14653,2.47302c-0.27697,0.29676 -0.69243,0.59352 -0.99248,0.89029a31.71332,33.97925 0 0 1 -2.44659,2.76978c-0.13849,0.29676 -0.41546,0.46987 -0.55394,0.74191c-1.15405,1.23651 -2.14653,2.47302 -3.30059,3.70953l-0.41546,0.44514c-2.3081,2.6214 -4.73161,5.21807 -7.31668,7.51797c-2.56199,2.47302 -5.28555,4.74819 -8.00911,6.75134a87.17701,93.40586 0 0 1 -17.58774,10.4114c-3.00053,1.38489 -6.16263,2.6214 -9.30165,3.6848c-6.00106,1.38489 -12.1637,3.98156 -17.44925,4.45143c-1.15405,0 -2.42351,0.29676 -3.57756,0.44514l-3.57756,0.91502l-3.43907,1.38489c-1.15405,0.46987 -2.28502,1.08813 -3.41599,1.68165c-1.01556,0.76664 -2.14653,1.38489 -3.1621,2.15152a23.33491,25.0022 0 0 0 -2.86205,2.6214c-0.99248,0.74191 -2.00805,1.83003 -2.86205,2.74505c-0.854,1.0634 -1.708,1.97841 -2.42351,3.06654c-0.71551,1.23651 -1.56951,2.29991 -2.14653,3.53641a25.20447,27.00535 0 0 0 -2.00805,3.51168c-0.57703,1.38489 -1.15405,2.6214 -1.56951,3.98156c-0.43854,1.23651 -0.854,2.6214 -1.29254,3.98156c-0.27697,1.23651 -0.57703,2.47302 -0.69243,3.70953c0,0.12365 -0.16157,0.29676 -0.16157,0.44514c-0.27697,1.38489 -0.27697,3.21492 -0.43854,4.12994c-0.13849,1.08813 -0.27697,1.97841 -0.27697,3.06654a15.16423,16.24772 0 0 0 1.708,7.66635l0,0.14838c0.43854,0.91502 1.01556,1.85476 1.59259,2.76978c0.55394,0.91502 1.15405,1.83003 1.84648,2.74505c0.71551,0.76664 1.56951,1.70638 2.44659,2.47302a20.9114,22.40553 0 0 0 2.70048,2.44829c3.43907,3.21492 4.29307,4.27832 8.72463,6.72661c0.71551,0.46987 1.43102,0.76664 2.3081,1.23651c0.13849,0 0.27697,0.14838 0.41546,0.14838c0,0.32149 0,0.46987 0.13849,0.76664a29.35906,31.45678 0 0 0 1.84648,7.36959c0.46162,0.91502 0.73859,1.83003 1.15405,2.74505c0.16157,0.32149 0.30005,0.61825 0.46162,0.76664c0.55394,1.23651 1.13097,2.29991 1.68491,3.38803l2.14653,3.21492c0.71551,0.91502 1.59259,1.97841 2.44659,2.91816c0.854,0.91502 1.708,1.68165 2.72356,2.59667c0,0 0.13849,0.14838 0.27697,0.14838c0.854,0.76664 1.708,1.53327 2.58507,2.15152a22.75788,24.38395 0 0 0 3.13902,1.97841c0.99248,0.61825 2.14653,1.23651 3.2775,1.70638a16.84914,18.05302 0 0 0 2.86205,1.0634c0.16157,0.14838 0.30005,0.14838 0.57703,0.29676c0.57703,0.17311 1.29254,0.32149 1.84648,0.46987c-0.41546,8.28461 -0.55394,16.07461 0.60011,18.84439c1.26946,3.06654 7.57057,-6.28146 13.84861,-17.01436c-0.83092,10.58451 -1.40794,22.99906 0,26.68385c1.59259,3.83318 10.15565,-8.13623 17.61082,-21.31741c101.44108,-25.12585 193.99596,49.95495 203.71307,156.04738c-1.84648,-16.56921 -20.88832,-25.74411 -29.61295,-23.4442c-4.29307,11.32642 -11.58667,25.89249 -23.31183,34.94373c0.99248,-10.13937 0.57703,-20.52604 -1.43102,-30.66541a92.5318,99.14325 0 0 1 -17.7493,38.62853c-13.57164,1.0634 -27.16636,-5.9847 -34.32147,-16.56921c-0.57703,-0.44514 -0.71551,-1.36016 -1.15405,-1.97841c-0.41546,-1.0634 -0.854,-2.15152 -1.15405,-3.21492a11.88672,12.73604 0 0 1 -0.854,-3.21492c-0.13849,-1.08813 -0.13849,-2.15152 -0.13849,-3.38803l0,-2.29991a22.89637,24.53233 0 0 1 0.71551,-3.21492c0.30005,-1.0634 0.57703,-2.12679 1.01556,-3.21492c0.55394,-1.0634 0.99248,-2.15152 1.708,-3.21492c2.42351,-7.36959 2.42351,-13.35429 -2.00805,-16.86598a16.2952,17.4595 0 0 0 -2.72356,-1.53327c-0.55394,-0.14838 -1.26946,-0.44514 -1.84648,-0.61825l-1.15405,-0.44514a19.54962,20.94645 0 0 0 -3.00053,-0.76664a10.89424,11.67264 0 0 0 -3.00053,-0.46987a23.31183,24.97747 0 0 0 -3.13902,-0.29676c-0.71551,0 -1.43102,0.14838 -2.14653,0.14838a11.17121,11.9694 0 0 0 -3.1621,0.46987c-0.99248,0.14838 -1.98497,0.29676 -3.00053,0.59352a24.65053,26.41182 0 0 0 -3.00053,1.08813c-0.99248,0.44514 -1.84648,0.91502 -2.86205,1.38489c-0.854,0.44514 -1.708,1.0634 -2.72356,1.53327c-33.32899,23.29582 -13.43315,77.85058 9.30165,93.65316c-8.58614,1.68165 -17.31076,3.66007 -19.73427,5.66321l-0.30005,0.29676c6.16263,3.98156 12.60224,7.36959 19.31881,10.28775c9.16316,3.21492 18.88027,6.10835 23.17334,7.34486l0,0.14838a138.39379,148.2821 0 0 0 36.05255,2.76978c63.38048,-4.74819 115.31277,-56.40952 124.75291,-124.46695l0.854,3.98156c0.43854,2.76978 0.99248,5.68794 1.29254,8.58137l0,0.14838c0.27697,1.38489 0.41546,2.76978 0.57703,4.00629l0,0.59352c0.13849,1.38489 0.27697,2.76978 0.27697,4.00629c0.13849,1.68165 0.27697,3.3633 0.27697,5.04495l0,2.47302c0,0.74191 0.16157,1.65692 0.16157,2.42356c0,0.93975 -0.16157,1.85476 -0.16157,2.76978l0,2.15152c0,1.0634 -0.13849,1.97841 -0.13849,3.06654c0,0.61825 0,1.23651 -0.13849,1.97841c0,1.08813 -0.13849,2.15152 -0.13849,3.38803c-0.13849,0.44514 -0.13849,0.91502 -0.13849,1.36016l-0.46162,3.53641c0,0.46987 0,0.91502 -0.11541,1.38489c-0.16157,1.53327 -0.43854,2.91816 -0.57703,4.45143l0,0.29676l-0.854,4.30305l0,0.44514l-0.854,4.12994c0,0.17311 -0.16157,0.4946 -0.16157,0.61825a38.38373,41.12627 0 0 1 -0.99248,4.15467l0,0.44514c-0.43854,1.53327 -0.854,2.91816 -1.15405,4.30305c-0.13849,0.14838 -0.13849,0.29676 -0.13849,0.29676l-1.29254,4.59981c-0.55394,1.53327 -0.99248,2.91816 -1.56951,4.45143c-0.57703,1.53327 -0.99248,3.06654 -1.56951,4.45143c-0.57703,1.53327 -1.15405,2.89343 -1.708,4.45143l-0.16157,0c-0.55394,1.36016 -1.15405,2.89343 -1.84648,4.27832a6.97047,7.46851 0 0 1 -0.43854,1.0634c-0.13849,0.14838 -0.13849,0.32149 -0.27697,0.46987a135.41634,145.09191 0 0 1 -40.20713,51.48822c-1.15405,0.76664 -2.28502,1.70638 -3.43907,2.6214c-0.27697,0.29676 -0.69243,0.44514 -0.99248,0.74191a60.07989,64.37263 0 0 1 -3.13902,2.32464l0.41546,0.91502l0.16157,0l6.00106,-0.91502l0.13849,0c3.71604,-0.61825 7.43209,-1.38489 11.14813,-2.15152c1.01556,-0.14838 2.14653,-0.46987 3.1621,-0.76664l2.00805,-0.46987c0.99248,-0.14838 1.98497,-0.44514 3.00053,-0.59352c0.854,-0.32149 1.708,-0.4946 2.56199,-0.76664c14.31023,-3.70953 28.18192,-8.75448 41.49967,-14.71445a229.10219,245.47168 0 0 1 -88.86192,77.7022c16.47985,-1.23651 32.91353,-4.12994 48.79327,-9.05124a228.57133,244.90288 0 0 0 135.18553,-115.7372a228.34052,244.65558 0 0 1 -38.47606,98.57446a225.22458,241.31701 0 0 0 38.19909,-34.02872a226.74793,242.9492 0 0 0 60.24146,-130.27854c4.84701,24.23557 6.27804,49.21304 4.15458,73.86902c103.26448,-154.341 8.56306,-314.36993 -31.06705,-356.51014c-0.13849,-0.32149 -0.27697,-0.46987 -0.27697,-0.76664c-0.13849,0.14838 -0.13849,0.14838 -0.13849,0.29676c0,-0.14838 0,-0.14838 -0.16157,-0.29676c0,1.83003 -0.13849,3.66007 -0.27697,5.51483a192.4957,206.24962 0 0 1 -1.43102,10.26302c-0.69243,3.3633 -1.56951,6.75134 -2.42351,10.13937c-1.01556,3.21492 -2.14653,6.57823 -3.46215,9.79315a122.83718,131.61397 0 0 1 -4.26999,9.348a109.28862,117.09736 0 0 1 -11.00965,17.01436c-2.14653,2.74505 -4.43156,5.19334 -6.73966,7.66635a92.18559,98.7723 0 0 1 -4.15458,3.83318l-3.2775,3.06654a79.83724,85.54166 0 0 1 -8.00911,5.95997a99.13298,106.21608 0 0 1 -8.44765,5.21807c-3.00053,1.53327 -6.00106,2.91816 -9.0016,4.30305a100.72557,107.92247 0 0 1 -18.88027,5.51483c-3.30059,0.61825 -6.57809,0.91502 -9.74019,1.23651a113.42013,121.52406 0 0 1 -6.85506,0.29676a107.55755,115.2426 0 0 1 -9.74019,-0.61825a72.40516,77.57855 0 0 1 -9.71711,-1.53327a72.38207,77.55382 0 0 1 -9.57862,-2.59667l-0.16157,0c3.1621,-0.32149 6.30112,-0.61825 9.46322,-1.23651a103.70302,111.11266 0 0 0 18.88027,-5.51483c3.13902,-1.23651 6.13955,-2.76978 9.0016,-4.30305c3.00053,-1.53327 5.72409,-3.21492 8.58614,-5.04495c2.72356,-1.97841 5.42404,-3.98156 8.00911,-6.13308c2.58507,-2.15152 5.00858,-4.45143 7.2936,-6.89972c2.42351,-2.29991 4.57004,-4.89657 6.71658,-7.51797c2.14653,-2.74505 4.15458,-5.51483 6.00106,-8.25988c0.30005,-0.46987 0.60011,-1.08813 0.87708,-1.53327c1.43102,-2.47302 2.86205,-4.9213 4.15458,-7.36959a98.60211,105.64729 0 0 0 7.70906,-19.16588c1.01556,-3.21492 1.73108,-6.57823 2.44659,-9.96626c0.57703,-3.51168 1.15405,-6.87499 1.43102,-10.26302c0.27697,-3.51168 0.57703,-7.0481 0.57703,-10.4114c0,-2.47302 -0.16157,-4.9213 -0.30005,-7.36959a155.24293,166.33513 0 0 0 -1.15405,-10.26302a103.70302,111.11266 0 0 0 -2.12345,-10.26302c-1.01556,-3.21492 -2.00805,-6.60296 -3.1621,-9.81788c-1.15405,-3.21492 -2.56199,-6.42984 -3.99302,-9.49639c-1.59259,-3.06654 -3.1621,-6.13308 -4.87009,-9.05124a157.94341,169.22856 0 0 0 -5.72409,-8.40826c-2.14653,-2.6214 -4.29307,-5.2428 -6.57809,-7.83946a89.50819,95.9036 0 0 0 -3.71604,-3.83318c-6.46269,-5.36645 -13.15618,-10.4114 -19.89584,-15.01121a26.6355,28.53862 0 0 0 -2.86205,-1.53327a55.74066,59.72336 0 0 0 -13.59472,-6.42984l0,-0.02473z"/>
  </g>
 </g>

</svg>